<svg width="72" height="77" viewBox="0 0 72 77" fill="none" xmlns="http://www.w3.org/2000/svg">
<path d="M29.5488 39.1672C28.9006 39.136 28.4215 38.8477 28.1117 38.3024C27.8243 37.7583 27.7026 37.0306 27.7465 36.1194C27.782 35.3845 27.8348 34.7536 27.905 34.2267C27.9753 33.6998 28.0916 33.1456 28.2541 32.5642C28.418 31.9534 28.6218 31.2119 28.8655 30.3398C29.133 29.4394 29.4684 28.2918 29.8718 26.8971C30.1127 26.0838 30.4103 25.0228 30.7647 23.7141C31.1429 22.377 31.5268 20.9225 31.9163 19.3503C32.3072 17.7487 32.6423 16.1445 32.9214 14.5375C33.2244 12.9022 33.4092 11.3939 33.4758 10.0123C33.5212 9.07175 33.4065 8.19708 33.1318 7.38836C30.9225 9.99231 28.7852 13.4247 26.72 17.6855C24.6771 21.9473 22.8014 26.9243 21.0929 32.6165C20.5987 34.0363 20.0601 34.9826 19.4772 35.4553C18.8956 35.8987 18.3478 36.1079 17.8337 36.0831C17.6772 36.0756 17.4481 35.9467 17.1465 35.6964C16.8463 35.4168 16.5784 34.9325 16.3428 34.2435C16.1072 33.5545 16.0191 32.5927 16.0787 31.3582C16.0928 31.0643 16.1664 30.6995 16.2995 30.264C16.4339 29.7991 16.6257 29.3075 16.8748 28.7892C17.1497 27.2704 17.3737 25.6461 17.5467 23.9162C17.7436 22.1579 17.895 20.4122 18.001 18.6791C18.1308 16.9176 18.2325 15.2726 18.3062 13.7442C18.363 12.5684 18.3455 11.5364 18.2539 10.6481C17.0707 12.4177 15.9249 14.5721 14.8166 17.1113C13.7082 19.6505 12.6815 22.3557 11.7364 25.2268C10.8136 28.0991 10.0278 30.919 9.37901 33.6866C9.21228 34.3562 9.02532 34.9806 8.81813 35.5599C8.61236 36.1097 8.32213 36.5524 7.94746 36.8879C7.59655 37.195 7.09697 37.333 6.44871 37.3017C5.73338 37.2672 5.21532 36.8592 4.89452 36.0777C4.57373 35.2962 4.44381 34.2735 4.50478 33.0096C4.55156 32.0396 4.7683 30.7979 5.15498 29.2845C5.54308 27.7417 6.04933 26.0721 6.67373 24.2756C7.29955 22.4496 8.00502 20.5981 8.79015 18.7209C9.59905 16.8154 10.4379 14.985 11.3068 13.2298C12.1757 11.4745 13.0465 9.91079 13.9193 8.53871C14.8159 7.13831 15.6529 6.04439 16.4302 5.25694C17.2314 4.44119 17.9449 4.0484 18.5708 4.07859C18.5932 4.07967 18.6267 4.08129 18.6714 4.08345C19.1632 4.10717 19.6074 4.18752 20.0041 4.3245C20.4246 4.43317 20.7786 4.7596 21.066 5.30378C21.3772 5.81965 21.6274 6.67139 21.8166 7.859C22.0058 9.04661 22.138 10.7176 22.2133 12.872C22.2325 13.4032 22.2356 14.0368 22.2225 14.7727C22.2108 15.4793 22.1865 16.2146 22.1497 16.9789C22.9923 14.8393 23.8955 12.8353 24.8595 10.9667C25.8458 9.09926 26.8439 7.45333 27.8536 6.02893C28.8857 4.6056 29.8911 3.50507 30.8696 2.72733C31.8482 1.9496 32.7398 1.58013 33.5446 1.61895C34.4834 1.66424 35.3403 2.01492 36.1153 2.67101C36.8917 3.2977 37.4918 4.32836 37.9155 5.76298C38.3392 7.19761 38.4922 9.13476 38.3746 11.5744C38.2498 14.1611 37.9497 16.6656 37.4744 19.0881C37.0005 21.4811 36.4435 23.7376 35.8035 25.8574C35.1635 27.9773 34.532 29.9208 33.909 31.6879C33.2875 33.4257 32.7667 34.9326 32.3466 36.2087C32.0121 37.1059 31.6406 37.8392 31.2322 38.4088C30.8253 38.9489 30.2641 39.2017 29.5488 39.1672Z" fill="#DFDFDF"/>
<path d="M46.0614 39.4649C43.5852 39.1518 41.6955 38.0048 40.3924 36.0239C39.0933 34.0072 38.6108 31.4763 38.945 28.4311C39.0512 27.4638 39.2814 26.494 39.6356 25.5218C40.0247 24.5539 40.4582 23.6644 40.9362 22.8531C40.7623 22.5042 40.6332 22.0701 40.5487 21.5509C40.5031 21.0003 40.5196 20.3668 40.5982 19.6502C40.8538 17.3216 41.4888 15.2407 42.5032 13.4075C43.5216 11.5385 44.7896 9.97347 46.307 8.71241C47.8244 7.45135 49.446 6.53036 51.1717 5.94944C52.8973 5.36852 54.5972 5.18388 56.2713 5.39554C59.1311 5.75711 61.3597 7.03775 62.957 9.23745C64.5892 11.4416 65.1772 14.6215 64.7212 18.7773C64.4931 20.8552 63.9473 22.9292 63.0836 24.9994C62.2199 27.0695 61.1394 29.0215 59.842 30.8552C58.5834 32.6575 57.172 34.2407 55.6079 35.6048C54.0787 36.9734 52.4802 38.0062 50.8125 38.7035C49.1796 39.4051 47.5959 39.6589 46.0614 39.4649ZM47.2177 21.1955C47.3489 21.6116 47.385 22.0883 47.326 22.6257C47.267 23.1631 47.1014 23.7052 46.8293 24.2519C46.5571 24.7987 46.2633 25.5425 45.9479 26.4833C45.6364 27.3883 45.3843 28.7186 45.1917 30.474C45.1406 30.9397 45.1496 31.3404 45.2189 31.6761C45.3269 31.9803 45.6077 32.1611 46.061 32.2184C47.2468 32.3684 48.4061 32.1154 49.5389 31.4595C50.7066 30.808 51.7797 29.8903 52.7582 28.7065C53.7717 27.527 54.6614 26.1865 55.4273 24.6852C56.232 23.1524 56.8817 21.5818 57.3764 19.9736C57.91 18.3338 58.2554 16.7975 58.4127 15.3644C58.5149 14.433 58.4113 13.7661 58.1018 13.3637C57.7924 12.9614 57.2017 12.7051 56.3298 12.5948C55.144 12.4449 53.8801 12.6847 52.5381 13.3141C51.2348 13.9121 50.092 14.821 49.1095 16.0407C48.1309 17.2246 47.5512 18.6405 47.3703 20.2885C47.3349 20.6109 47.2841 20.9133 47.2177 21.1955Z" fill="#DFDFDF"/>
<path d="M20.4155 39.4959C23.3979 39.2858 25.8549 40.0074 27.7866 41.6605C29.7208 43.3494 30.7945 45.7071 31.0077 48.7339C31.0754 49.6953 30.9974 50.6849 30.7736 51.7027C30.5078 52.7234 30.1739 53.6774 29.7721 54.5645C30.0467 54.8672 30.2856 55.2619 30.4887 55.7486C30.6524 56.2739 30.7593 56.8926 30.8094 57.6048C30.9725 59.9194 30.6387 62.0721 29.808 64.0631C28.9799 66.0896 27.7968 67.8728 26.259 69.4125C24.7211 70.9523 22.9926 72.1834 21.0735 73.1059C19.1545 74.0284 17.1868 74.5606 15.1705 74.7027C11.726 74.9453 8.84268 74.1643 6.52041 72.3597C4.15614 70.5581 2.82851 67.5919 2.53751 63.4613C2.39202 61.396 2.62206 59.2684 3.22765 57.0786C3.83324 54.8889 4.71814 52.7688 5.88234 50.7186C7.00705 48.707 8.35558 46.8764 9.92794 45.2268C11.4583 43.5802 13.1372 42.2452 14.9648 41.2219C16.7503 40.2014 18.5672 39.6261 20.4155 39.4959ZM22.6954 57.4786C22.4578 57.1017 22.3202 56.6462 22.2826 56.112C22.2449 55.5779 22.3321 55.0171 22.544 54.4296C22.7559 53.8421 22.954 53.0587 23.1383 52.0795C23.3251 51.136 23.357 49.7917 23.2341 48.0469C23.2015 47.584 23.1109 47.1967 22.9623 46.8851C22.7742 46.6121 22.4071 46.4948 21.861 46.5333C20.4329 46.6339 19.1163 47.1203 17.9113 47.9925C16.6643 48.8676 15.5819 49.9816 14.6641 51.3346C13.7042 52.6905 12.9225 54.177 12.3187 55.7941C11.6755 57.4497 11.2226 59.1099 10.9599 60.7745C10.6578 62.4777 10.5569 64.0415 10.6572 65.4659C10.7224 66.3917 10.9776 67.0179 11.4227 67.3444C11.8679 67.6708 12.6155 67.7971 13.6657 67.7231C15.0939 67.6225 16.5365 67.1272 17.9935 66.2373C19.411 65.386 20.5774 64.266 21.4927 62.8775C22.4106 61.5245 22.8118 60.029 22.6964 58.391C22.6738 58.0706 22.6735 57.7664 22.6954 57.4786Z" fill="#DFDFDF"/>
<path d="M38.7011 76.0264C38.0775 76.0264 37.2239 75.8352 36.6003 75.168C36.0027 74.4592 35.1544 73.3244 34.7646 72.0317C34.3749 70.6974 34.18 67.2156 34.18 67.2156C34.18 67.2156 34.3489 62.0208 34.7646 59.1853C35.2063 56.3498 35.4511 54.129 35.9113 50.8946C36.3213 48.0138 36.4399 46.4167 36.9862 43.5247C37.272 42.3155 37.6228 41.5023 38.0385 41.0854C38.4543 40.6267 38.9999 40.3973 39.6755 40.3973C41.2085 40.3973 41.5073 42.9388 41.5073 44.56C41.5073 44.977 41.3861 46.0509 41.2139 47.2607C41.0237 48.5963 40.639 50.8916 40.4344 52.2232C40.0935 54.4421 39.9441 55.4615 39.5332 58.1984C39.2231 60.2639 38.9368 62.2524 38.7782 63.4984C38.5589 65.2201 38.4009 67.8501 39.2193 67.8501C39.817 66.3906 40.7798 63.9965 41.5073 61.8281C42.2609 59.6181 43.0534 57.3039 43.8849 54.8854C44.7423 52.4669 45.5998 50.2152 46.4572 48.1302C47.3147 46.0036 48.1592 44.2731 48.9906 42.9388C49.8221 41.6044 50.6146 40.9373 51.3682 40.9373C52.0177 40.9373 52.6284 41.1458 53.2 41.5627C53.7976 41.938 54.3173 42.6886 54.759 43.8145C55.2007 44.8986 55.5385 46.4623 55.7724 48.5055C56.0322 50.5487 56.1621 53.2383 56.1621 56.5742C56.1621 58.2421 56.2531 59.8683 56.435 61.4529C56.6428 62.9957 56.9806 64.2884 57.4483 65.3308C57.916 66.3316 58.5786 66.832 59.4361 66.832C60.9172 66.832 62.2423 66.3941 63.4116 65.5185C64.5809 64.6428 65.6072 63.6212 66.4907 62.4536C67.3741 61.2861 68.1146 60.2645 68.7123 59.3888C69.076 58.805 69.3878 58.3463 69.6477 58.0127C69.9335 57.6792 70.1674 57.5124 70.3492 57.5124C70.8949 57.5124 71.2847 57.7417 71.5185 58.2004C71.7783 58.6591 71.9083 59.2845 71.9083 60.0768C71.9083 60.4938 71.6874 61.2652 71.2457 62.3911C70.804 63.5169 70.1803 64.8096 69.3749 66.269C68.5953 67.6868 67.6989 69.0628 66.6855 70.3972C65.6722 71.7315 64.5809 72.8365 63.4116 73.7122C62.2423 74.5878 61.0471 75.0257 59.8258 75.0257C57.7731 75.0257 56.0712 74.4419 54.72 73.2743C53.3949 72.0651 52.4075 70.0636 51.7579 67.2698C51.1083 64.4343 50.7835 60.5772 50.7835 55.6985C50.7835 55.5734 50.7835 55.3649 50.7835 55.073C50.7835 53.7804 50.7705 52.6337 50.7445 51.6329C50.7445 50.6321 50.7056 49.819 50.6276 49.1935C50.1859 50.4862 49.6532 52.029 49.0296 53.8221C48.432 55.6151 47.7824 57.5332 47.0808 59.5764C46.3793 61.578 45.6517 63.5586 44.8982 65.5185C44.1447 67.4366 43.3912 69.1879 42.6376 70.7724C41.9101 72.357 41.2085 73.6288 40.533 74.5878C39.8574 75.5469 39.2468 76.0264 38.7011 76.0264Z" fill="#DFDFDF"/>
</svg>
