<svg class="" width="347" height="75" viewBox="0 0 347 75" fill="white" xmlns="http://www.w3.org/2000/svg">
<path d="M8.31102 34.5074C8.31102 32.209 6.45054 30.3457 4.15551 30.3457C1.86049 30.3457 0 32.209 0 34.5074V39.8086C0 42.1071 1.86049 43.9704 4.15551 43.9704C6.45054 43.9704 8.31102 42.1071 8.31102 39.8086V34.5074Z" fill="white"/>
<path d="M23.6944 30.1723C23.6944 27.8739 21.8339 26.0106 19.5389 26.0106C17.2439 26.0106 15.3834 27.8739 15.3834 30.1723V44.1438C15.3834 46.4422 17.2439 48.3055 19.5389 48.3055C21.8339 48.3055 23.6944 46.4422 23.6944 44.1438V30.1723Z" fill="white"/>
<path d="M39.0779 17.167C39.0779 14.8686 37.2174 13.0053 34.9224 13.0053C32.6274 13.0053 30.7669 14.8686 30.7669 17.167V57.1491C30.7669 59.4475 32.6274 61.3108 34.9224 61.3108C37.2174 61.3108 39.0779 59.4475 39.0779 57.1491V17.167Z" fill="white"/>
<path d="M54.4737 4.1617C54.4737 1.86326 52.6132 0 50.3182 0C48.0231 0 46.1627 1.86326 46.1627 4.1617V70.1544C46.1627 72.4528 48.0231 74.3161 50.3182 74.3161C52.6132 74.3161 54.4737 72.4528 54.4737 70.1544V4.1617Z" fill="white"/>
<path d="M69.8571 34.5074C69.8571 32.209 67.9967 30.3457 65.7016 30.3457C63.4066 30.3457 61.5461 32.209 61.5461 34.5074V39.8086C61.5461 42.1071 63.4066 43.9704 65.7016 43.9704C67.9967 43.9704 69.8571 42.1071 69.8571 39.8086V34.5074Z" fill="white"/>
<path d="M85.2406 21.5021C85.2406 19.2037 83.3801 17.3404 81.085 17.3404C78.79 17.3404 76.9295 19.2037 76.9295 21.5021V52.814C76.9295 55.1124 78.79 56.9757 81.085 56.9757C83.3801 56.9757 85.2406 55.1124 85.2406 52.814V21.5021Z" fill="white"/>
<path d="M100.624 30.1723C100.624 27.8739 98.7635 26.0106 96.4685 26.0106C94.1735 26.0106 92.313 27.8739 92.313 30.1723V44.1438C92.313 46.4422 94.1735 48.3055 96.4685 48.3055C98.7635 48.3055 100.624 46.4422 100.624 44.1438V30.1723Z" fill="white"/>
<path d="M116.02 4.1617C116.02 1.86326 114.159 0 111.864 0C109.569 0 107.709 1.86326 107.709 4.1617V70.1544C107.709 72.4528 109.569 74.3161 111.864 74.3161C114.159 74.3161 116.02 72.4528 116.02 70.1544V4.1617Z" fill="white"/>
<path d="M131.403 12.8319C131.403 10.5335 129.543 8.67021 127.248 8.67021C124.953 8.67021 123.092 10.5335 123.092 12.8319V61.4842C123.092 63.7826 124.953 65.6459 127.248 65.6459C129.543 65.6459 131.403 63.7826 131.403 61.4842V12.8319Z" fill="white"/>
<path d="M146.787 34.5074C146.787 32.209 144.926 30.3457 142.631 30.3457C140.336 30.3457 138.476 32.209 138.476 34.5074V39.8086C138.476 42.1071 140.336 43.9704 142.631 43.9704C144.926 43.9704 146.787 42.1071 146.787 39.8086V34.5074Z" fill="white"/>
<path d="M162.17 34.5074C162.17 32.209 160.31 30.3457 158.015 30.3457C155.72 30.3457 153.859 32.209 153.859 34.5074V39.8086C153.859 42.1071 155.72 43.9704 158.015 43.9704C160.31 43.9704 162.17 42.1071 162.17 39.8086V34.5074Z" fill="white"/>
<path d="M177.554 4.1617C177.554 1.86326 175.693 0 173.398 0C171.103 0 169.243 1.86326 169.243 4.1617V70.1544C169.243 72.4528 171.103 74.3161 173.398 74.3161C175.693 74.3161 177.554 72.4528 177.554 70.1544V4.1617Z" fill="white"/>
<path d="M192.949 30.1723C192.949 27.8739 191.089 26.0106 188.794 26.0106C186.499 26.0106 184.638 27.8739 184.638 30.1723V44.1438C184.638 46.4422 186.499 48.3055 188.794 48.3055C191.089 48.3055 192.949 46.4422 192.949 44.1438V30.1723Z" fill="white"/>
<path d="M208.333 8.49682C208.333 6.19837 206.472 4.33511 204.177 4.33511C201.882 4.33511 200.022 6.19837 200.022 8.49682V65.8193C200.022 68.1177 201.882 69.981 204.177 69.981C206.472 69.981 208.333 68.1177 208.333 65.8193V8.49682Z" fill="white"/>
<path d="M223.716 21.5021C223.716 19.2037 221.856 17.3404 219.561 17.3404C217.266 17.3404 215.405 19.2037 215.405 21.5021V52.814C215.405 55.1124 217.266 56.9757 219.561 56.9757C221.856 56.9757 223.716 55.1124 223.716 52.814V21.5021Z" fill="white"/>
<path d="M239.1 30.1723C239.1 27.8739 237.239 26.0106 234.944 26.0106C232.649 26.0106 230.789 27.8739 230.789 30.1723V44.1438C230.789 46.4422 232.649 48.3055 234.944 48.3055C237.239 48.3055 239.1 46.4422 239.1 44.1438V30.1723Z" fill="white"/>
<path d="M254.495 34.5074C254.495 32.209 252.635 30.3457 250.34 30.3457C248.045 30.3457 246.184 32.209 246.184 34.5074V39.8086C246.184 42.1071 248.045 43.9704 250.34 43.9704C252.635 43.9704 254.495 42.1071 254.495 39.8086V34.5074Z" fill="white"/>
<path d="M269.879 34.5074C269.879 32.209 268.018 30.3457 265.723 30.3457C263.428 30.3457 261.568 32.209 261.568 34.5074V39.8086C261.568 42.1071 263.428 43.9704 265.723 43.9704C268.018 43.9704 269.879 42.1071 269.879 39.8086V34.5074Z" fill="white"/>
<path d="M285.262 21.5021C285.262 19.2037 283.402 17.3404 281.107 17.3404C278.812 17.3404 276.951 19.2037 276.951 21.5021V52.814C276.951 55.1124 278.812 56.9757 281.107 56.9757C283.402 56.9757 285.262 55.1124 285.262 52.814V21.5021Z" fill="white"/>
<path d="M300.646 8.49682C300.646 6.19837 298.785 4.33511 296.49 4.33511C294.195 4.33511 292.335 6.19837 292.335 8.49682V65.8193C292.335 68.1177 294.195 69.981 296.49 69.981C298.785 69.981 300.646 68.1177 300.646 65.8193V8.49682Z" fill="white"/>
<path d="M316.029 17.167C316.029 14.8686 314.169 13.0053 311.874 13.0053C309.579 13.0053 307.718 14.8686 307.718 17.167V57.1491C307.718 59.4475 309.579 61.3108 311.874 61.3108C314.169 61.3108 316.029 59.4475 316.029 57.1491V17.167Z" fill="white"/>
<path d="M331.425 25.8372C331.425 23.5388 329.565 21.6755 327.27 21.6755C324.975 21.6755 323.114 23.5388 323.114 25.8372V48.4789C323.114 50.7773 324.975 52.6406 327.27 52.6406C329.565 52.6406 331.425 50.7773 331.425 48.4789V25.8372Z" fill="white"/>
<path d="M346.808 34.5074C346.808 32.209 344.948 30.3457 342.653 30.3457C340.358 30.3457 338.497 32.209 338.497 34.5074V39.8086C338.497 42.1071 340.358 43.9704 342.653 43.9704C344.948 43.9704 346.808 42.1071 346.808 39.8086V34.5074Z" fill="#1DB954"/>
</svg>
